<?xml version="1.0" encoding="utf-8"?>
<!-- Generator: Adobe Illustrator 24.3.0, SVG Export Plug-In . SVG Version: 6.00 Build 0)  -->
<svg version="1.1" id="Layer_1" xmlns="http://www.w3.org/2000/svg" xmlns:xlink="http://www.w3.org/1999/xlink" x="0px" y="0px"
	 viewBox="0 0 30 30" style="enable-background:new 0 0 30 30;" xml:space="preserve">
<style type="text/css">
	.st0{fill:#FF4383;}
</style>
<g id="Group_10285" transform="translate(-678 543.907)">
	<path id="Path_3703" class="st0" d="M687.3-530c0-0.1,0-0.1,0-0.2c0-0.1,0-0.1,0-0.2c0-0.2,0.1-0.4,0.1-0.6c0-0.1,0-0.1,0.1-0.2
		c0,0,0,0,0,0c0,0,0-0.1,0-0.1c0-0.2,0.1-0.3,0.2-0.5c0-0.1,0.1-0.2,0.1-0.2c0.1-0.2,0.2-0.3,0.2-0.5c0.1-0.2,0.2-0.3,0.3-0.4
		c0,0,0,0,0,0c0.2-0.2,0.3-0.4,0.5-0.6c1.1-1,2.5-1.6,4-1.6h1.3c1.6,0,3.2,0.7,4.3,1.9c1.1,1.1,2.6,1.7,4.1,1.6c0.3,0,0.7,0,1-0.1
		l0,0l0,0l0,0c-0.1-0.3-0.3-0.7-0.5-1l-1.5-2.6c-1.4-2.4-4-3.9-6.8-3.9h-3c-2.8,0-5.4,1.5-6.8,3.9l-1.5,2.6c-1.4,2.4-1.4,5.4,0,7.8
		l1.5,2.6c1.4,2.4,4,3.9,6.8,3.9h3c2.8,0,5.4-1.5,6.8-3.9l1.5-2.6c0.2-0.3,0.3-0.6,0.5-1l0,0c-0.1,0-0.2,0-0.3,0c-0.1,0-0.2,0-0.3,0
		c-0.2,0-0.3,0-0.5,0c-1.5-0.1-3.1,0.5-4.1,1.6c-1.1,1.2-2.7,1.9-4.3,1.9h-1.3c-1.5,0-2.9-0.5-4-1.6c-0.1-0.1-0.3-0.3-0.4-0.5l0,0
		c-0.1-0.1-0.1-0.2-0.2-0.3l0,0c-0.1-0.1-0.2-0.3-0.3-0.4c0,0,0-0.1-0.1-0.1c0-0.1-0.1-0.1-0.1-0.2v0l0,0c0-0.1-0.1-0.2-0.1-0.3
		c0,0,0,0,0-0.1c0-0.1,0-0.1-0.1-0.2c0-0.1,0-0.1-0.1-0.2c0,0,0-0.1,0-0.1c0,0,0,0,0,0c0-0.1,0-0.2-0.1-0.2c0-0.2-0.1-0.4-0.1-0.6
		c0-0.1,0-0.1,0-0.2c0-0.1,0-0.1,0-0.2c0-0.1,0-0.2,0-0.2v-1.8C687.3-529.9,687.3-529.9,687.3-530z M688.8-524.3L688.8-524.3
		L688.8-524.3L688.8-524.3z M688.2-525L688.2-525C688.2-525,688.2-525,688.2-525L688.2-525z M688-525.3L688-525.3L688-525.3
		L688-525.3z M687.9-525.5C687.9-525.5,687.9-525.5,687.9-525.5c0-0.1,0-0.1-0.1-0.1C687.9-525.6,687.9-525.6,687.9-525.5
		L687.9-525.5z M687.8-525.8C687.8-525.8,687.8-525.8,687.8-525.8c0-0.1-0.1-0.1-0.1-0.2v0C687.7-525.9,687.8-525.8,687.8-525.8
		L687.8-525.8z"/>
	<path id="Path_3704" class="st0" d="M704-530.3c-0.1,0-0.2,0-0.4,0.1c-0.4,0.1-0.7,0.1-1.1,0.1c-0.6,0-1.1,0-1.7-0.2
		c-0.1,0-0.1,0-0.2,0l0,0c-3-0.7-3.4-2.8-5.6-3.3c-0.3-0.1-0.6-0.1-0.9-0.1h-1.3c-0.3,0-0.6,0-0.8,0.1c-1.8,0.3-3.1,1.9-3.1,3.8v1.8
		c-0.1,2.1,1.6,3.8,3.6,3.9c0.1,0,0.2,0,0.3,0h1.3c0.8,0,1.6-0.2,2.2-0.7c0.2-0.1,0.4-0.3,0.6-0.4c0.1,0,0.1-0.1,0.2-0.2
		c0,0,0.1-0.1,0.1-0.1l0.3-0.3c0,0,0,0,0,0c0.3-0.2,0.5-0.4,0.8-0.7c0.4-0.3,0.8-0.5,1.3-0.7c0.1,0,0.2-0.1,0.3-0.1
		c0.8-0.3,1.7-0.4,2.6-0.4c0.5,0,1,0,1.5,0.1C704.2-528.5,704.2-529.4,704-530.3z"/>
	<path id="Path_3705" class="st0" d="M707-526.3c-0.9-0.7-1.9-1.1-3-1.3v0c-0.1,0.5-0.2,1-0.4,1.5c0.9,0.1,1.7,0.5,2.5,1
		c0,0,0,0,0,0c-2.2,7.1-9.7,11-16.7,8.8c-7.1-2.2-11-9.7-8.8-16.7c2.2-7.1,9.7-11,16.7-8.8c4.2,1.3,7.5,4.6,8.8,8.8c0,0,0,0,0,0
		c-0.7,0.5-1.6,0.9-2.5,1c0.2,0.5,0.3,1,0.4,1.5c0,0,0,0,0,0c1.1-0.2,2.1-0.6,3-1.3c0.6-0.4,0.8-1.1,0.6-1.8
		c-2.4-7.9-10.8-12.4-18.7-9.9c-7.9,2.4-12.4,10.8-9.9,18.8c2.4,7.9,10.8,12.4,18.7,9.9c4.7-1.5,8.4-5.2,9.9-9.9
		C707.9-525.1,707.6-525.9,707-526.3z"/>
</g>
</svg>
