<?xml version="1.0" encoding="utf-8"?>
<!-- Generator: Adobe Illustrator 26.5.0, SVG Export Plug-In . SVG Version: 6.00 Build 0)  -->
<svg version="1.1" id="Layer_1" xmlns="http://www.w3.org/2000/svg" xmlns:xlink="http://www.w3.org/1999/xlink" x="0px" y="0px"
	 viewBox="0 0 1228 1162.8" style="enable-background:new 0 0 1228 1162.8;" xml:space="preserve">
<style type="text/css">
	.st0{fill:#201C26;}
</style>
<path class="st0" d="M1228,21.5v1045.2c-95.7,36.6-275.1,96.1-427.6,96.1c-246.1,0-407.7-148.4-630.6-148.4
	c-5.9-0.2-11.7-0.3-17.6-0.3c-58.3,0-112.3,10.6-152.3,21.4V18.9c8.5,2.2,17.2,4.5,26.2,7.2c15,4.4,29.7,9.1,44.4,14
	C85.3,45,100,50.1,115.2,55.4c43.8,15.3,89.1,31.1,139.7,43c26.5,6.3,53.3,11.1,80.4,14.4c14.6,1.8,29.5,3.2,44.3,4.1
	c15.6,1,31.6,1.4,47.5,1.4c15.3,0,30.9-0.5,46.3-1.4c14.7-0.9,29.6-2.2,44.5-3.9c27.4-3.2,55-7.8,84.4-14
	C656.7,87.5,708.6,72,758.9,57c23.7-7.1,48.2-14.4,72.3-21.1c27-7.5,50.9-13.5,73-18.2c26.5-5.7,51.1-9.9,75.3-12.8
	c13.1-1.6,26.2-2.8,38.9-3.6c13.4-0.8,26.9-1.3,40.1-1.3c19.2,0,44.5,2.1,75.5,6.2c24.7,3.3,53,7.8,84.1,13.5
	C1221.5,20.3,1224.8,20.9,1228,21.5z"/>
</svg>
