<?xml version="1.0" encoding="utf-8"?>
<!-- Generator: Adobe Illustrator 26.5.0, SVG Export Plug-In . SVG Version: 6.00 Build 0)  -->
<svg version="1.1" id="Layer_1" xmlns="http://www.w3.org/2000/svg" xmlns:xlink="http://www.w3.org/1999/xlink" x="0px" y="0px"
	 viewBox="0 0 1364.4 1802.2" style="enable-background:new 0 0 1364.4 1802.2;" xml:space="preserve" preserveAspectRatio="none">
<style type="text/css">
	.st0{fill:#CEC5F5;}
</style>
<path id="Union_53" class="st0" d="M1364.4,33.2c-7.7,0-15.4-0.8-23-2.4c-16-3.3-35.7-7.3-57-11.2c-31.1-5.7-59.4-10.3-84.1-13.5
	c-30.9-4.1-56.3-6.1-75.5-6.1c-13.2,0-26.7,0.4-40.1,1.3c-12.8,0.8-25.9,2-39,3.6c-24.2,2.9-48.8,7.1-75.2,12.8
	c-22.1,4.8-46,10.7-73,18.2c-24.1,6.7-48.6,14-72.3,21.1l0,0C724,87.2,619.3,118.4,493.2,118.4c-131.5,0-223.2-32-311.8-63
	c-30.3-10.6-58.9-20.6-89-29.3c-16.2-4.7-31.2-8.6-45.9-11.9C30.6,10.6,15.4,7.8,0,5.7v1684.7c162,23.9,278.3,111.8,495.9,111.8
	c246.1,0,408.7-118.4,631.6-118.4c62.5,0,180.5,31.4,236.9,47.5V33.2L1364.4,33.2z M1294.2,1154.8c-95.7,36.6-275.1,96.1-427.6,96.1
	c-246.1,0-407.7-148.4-630.6-148.4c-5.9-0.2-11.7-0.3-17.5-0.3c-58.3,0-112.3,10.6-152.3,21.4V106.9c8.5,2.2,17.2,4.5,26.2,7.2
	c15,4.4,29.7,9.1,44.4,14c14.7,4.9,29.4,10.1,44.5,15.3c43.8,15.3,89.1,31.1,139.7,43c26.5,6.3,53.3,11.1,80.4,14.4
	c14.6,1.8,29.5,3.2,44.3,4.1c15.6,1,31.6,1.4,47.5,1.4c15.3,0,30.9-0.5,46.3-1.4c14.6-0.9,29.6-2.2,44.5-3.9
	c27.4-3.2,55-7.8,84.4-14c54.5-11.6,106.5-27.1,156.8-42.1c23.7-7.1,48.2-14.4,72.3-21.1c27-7.5,50.9-13.5,73-18.2
	c26.5-5.7,51.1-9.9,75.3-12.8c13.1-1.6,26.2-2.8,38.9-3.6c13.4-0.8,26.9-1.3,40.1-1.3c19.2,0,44.5,2.1,75.5,6.2
	c24.7,3.3,53,7.8,84.1,13.5c3.3,0.6,6.6,1.2,9.9,1.8V1154.8z"/>
</svg>
