<?xml version="1.0" encoding="utf-8"?>
<!-- Generator: Adobe Illustrator 24.3.0, SVG Export Plug-In . SVG Version: 6.00 Build 0)  -->
<svg version="1.1" id="Layer_1" xmlns="http://www.w3.org/2000/svg" xmlns:xlink="http://www.w3.org/1999/xlink" x="0px" y="0px"
	 viewBox="0 0 190 48.4" style="enable-background:new 0 0 190 48.4;" xml:space="preserve">
<style type="text/css">
	.st0{enable-background:new    ;}
	.st1{fill:#F9F9F9;}
</style>
<g id="Group_10200" transform="translate(-1103 -444.199)">
	<g class="st0">
		<path class="st1" d="M1118.6,466.7v5.5h-1.3v-5.4c0-2-1-3-2.7-3c-1.9,0-3.2,1.3-3.2,3.4v5h-1.3v-5.4c0-2-1-3-2.7-3
			c-1.9,0-3.2,1.3-3.2,3.4v5h-1.3v-9.5h1.2v1.7c0.7-1.1,1.9-1.8,3.5-1.8c1.6,0,2.8,0.7,3.4,2c0.7-1.2,2-2,3.7-2
			C1117.1,462.6,1118.6,463.9,1118.6,466.7z"/>
		<path class="st1" d="M1130.4,467.8h-7.9c0.1,2,1.7,3.3,3.7,3.3c1.2,0,2.2-0.4,2.9-1.2l0.7,0.8c-0.8,1-2.2,1.5-3.7,1.5
			c-3,0-5-2-5-4.8s2-4.8,4.6-4.8c2.7,0,4.6,2,4.6,4.8C1130.4,467.5,1130.4,467.7,1130.4,467.8z M1122.5,466.9h6.7
			c-0.2-1.9-1.5-3.2-3.4-3.2C1124,463.7,1122.6,465,1122.5,466.9z"/>
		<path class="st1" d="M1148.6,466.7v5.5h-1.3v-5.4c0-2-1-3-2.7-3c-1.9,0-3.2,1.3-3.2,3.4v5h-1.3v-5.4c0-2-1-3-2.7-3
			c-1.9,0-3.2,1.3-3.2,3.4v5h-1.3v-9.5h1.2v1.7c0.7-1.1,1.9-1.8,3.5-1.8c1.6,0,2.8,0.7,3.4,2c0.7-1.2,2-2,3.7-2
			C1147.1,462.6,1148.6,463.9,1148.6,466.7z"/>
		<path class="st1" d="M1161.7,467.4c0,2.9-2,4.8-4.7,4.8c-1.6,0-2.9-0.7-3.7-2v1.9h-1.2v-13.4h1.3v5.7c0.8-1.2,2.1-1.9,3.6-1.9
			C1159.7,462.6,1161.7,464.6,1161.7,467.4z M1160.4,467.4c0-2.2-1.5-3.7-3.5-3.7c-2,0-3.5,1.5-3.5,3.7s1.5,3.7,3.5,3.7
			C1158.9,471.1,1160.4,469.6,1160.4,467.4z"/>
		<path class="st1" d="M1172.6,467.8h-7.9c0.1,2,1.7,3.3,3.7,3.3c1.2,0,2.2-0.4,2.9-1.2l0.7,0.8c-0.8,1-2.2,1.5-3.7,1.5
			c-3,0-5-2-5-4.8s2-4.8,4.6-4.8c2.7,0,4.6,2,4.6,4.8C1172.6,467.5,1172.6,467.7,1172.6,467.8z M1164.6,466.9h6.7
			c-0.2-1.9-1.5-3.2-3.4-3.2C1166.1,463.7,1164.8,465,1164.6,466.9z"/>
		<path class="st1" d="M1180,462.6v1.2c-0.1,0-0.2,0-0.3,0c-2,0-3.2,1.3-3.2,3.5v4.8h-1.3v-9.5h1.2v1.9
			C1177,463.3,1178.2,462.6,1180,462.6z"/>
		<path class="st1" d="M1186.2,467.4c0-2.8,2.1-4.8,4.8-4.8c2.8,0,4.8,2,4.8,4.8s-2,4.8-4.8,4.8
			C1188.2,472.2,1186.2,470.2,1186.2,467.4z M1194.5,467.4c0-2.2-1.5-3.7-3.5-3.7s-3.5,1.5-3.5,3.7s1.5,3.7,3.5,3.7
			S1194.5,469.6,1194.5,467.4z"/>
		<path class="st1" d="M1199.9,461.6v1.1h2.9v1.1h-2.9v8.4h-1.3v-8.4h-1.7v-1.1h1.7v-1.2c0-1.7,1-2.8,2.9-2.8c0.7,0,1.4,0.2,1.9,0.6
			l-0.4,1c-0.4-0.3-0.9-0.5-1.4-0.5C1200.4,459.8,1199.9,460.4,1199.9,461.6z"/>
	</g>
	<g id="Group_9958" transform="translate(1216.635 444.199)">
		<g id="Group_9953" transform="translate(60.129 11.112)">
			<g id="Path_3692">
				<path class="st1" d="M15.2,0v17l-3-2.3L1.3,6.3V17h-3v-17l3,2.3l10.9,8.4V0L15.2,0z"/>
			</g>
		</g>
		<g id="Group_9954" transform="translate(34.38 11.112)">
			<g id="Path_3693">
				<path class="st1" d="M15.2,8.5c0,4.7-3.8,8.5-8.5,8.5s-8.5-3.8-8.5-8.5C-1.8,3.8,2,0,6.7,0C11.4,0,15.2,3.8,15.2,8.5z M12.2,8.5
					c0-3-2.4-5.5-5.5-5.5S1.3,5.5,1.3,8.5S3.7,14,6.7,14C9.7,14,12.2,11.5,12.2,8.5L12.2,8.5z"/>
			</g>
		</g>
		<g id="Group_9955" transform="translate(0 11.112)">
			<g id="Path_3694">
				<path class="st1" d="M15.2,0v17h-3V6.2l-3,2.3l-2.5,1.9L4.2,8.5l-3-2.3V17h-3V0l3,2.3l5.5,4.2l5.5-4.2L15.2,0z"/>
			</g>
		</g>
		<g id="Group_9956" transform="translate(0.268 42.898)">
			<g id="Path_3695">
				<path class="st1" d="M-1.8,4.9l0.3-0.8c0.5,0.4,1.1,0.6,1.8,0.6c0.8,0,1.2-0.3,1.2-0.7c0-1.2-3.2-0.4-3.2-2.4
					C-1.7,0.7-1,0,0.5,0c0.6,0,1.2,0.2,1.8,0.5L2,1.2C1.5,1,1,0.8,0.5,0.8c-0.8,0-1.2,0.3-1.2,0.7c0,1.1,3.2,0.4,3.2,2.4
					c0,0.9-0.7,1.6-2.2,1.6C-0.4,5.5-1.2,5.3-1.8,4.9z"/>
			</g>
			<g id="Path_3696">
				<path class="st1" d="M10.4,2.8c-0.1-1.6,1.2-2.9,2.8-3c1.6-0.1,2.9,1.2,3,2.8c0.1,1.6-1.2,2.9-2.8,3c0,0-0.1,0-0.1,0
					c-1.5,0.1-2.8-1.1-2.9-2.6C10.4,2.9,10.4,2.8,10.4,2.8z M15.2,2.8c0-1-0.8-1.9-1.9-1.9s-1.9,0.8-1.9,1.9c0,1,0.8,1.9,1.9,1.9
					c0,0,0,0,0,0c1,0,1.9-0.8,1.9-1.8C15.2,2.8,15.2,2.8,15.2,2.8L15.2,2.8z"/>
			</g>
			<g id="Path_3697">
				<path class="st1" d="M24.2,2.8c0.1-1.6,1.4-2.8,3-2.7c0.7,0,1.4,0.4,1.9,0.9l-0.6,0.6c-0.4-0.4-0.9-0.6-1.4-0.6
					c-1,0-1.9,0.8-1.9,1.8c0,1,0.8,1.9,1.8,1.9c0,0,0.1,0,0.1,0c0.5,0,1.1-0.2,1.4-0.6l0.6,0.6c-1.1,1.2-2.9,1.2-4.1,0.1
					C24.6,4.2,24.3,3.5,24.2,2.8L24.2,2.8z"/>
			</g>
			<g id="Path_3698">
				<path class="st1" d="M37.5,0.1h1v5.4h-1V0.1z"/>
			</g>
			<g id="Path_3699">
				<path class="st1" d="M51.3,4.6v0.8h-4V0.1h3.9v0.8h-2.9v1.4h2.6v0.8h-2.6v1.5L51.3,4.6z"/>
			</g>
			<g id="Path_3700">
				<path class="st1" d="M60.9,0.9h-1.8V0.1h4.5v0.8h-1.8v4.5h-1V0.9z"/>
			</g>
			<g id="Path_3701">
				<path class="st1" d="M74,3.5v1.9h-1V3.6l-2.1-3.5h1.1l1.6,2.6l1.6-2.6h1L74,3.5z"/>
			</g>
		</g>
		<g id="Group_9957" transform="translate(19.365 0)">
			<g id="Path_3702">
				<path class="st1" d="M17.2,37.9c-10.5,0-19-8.5-19-19s8.5-19,19-19c10.5,0,19,8.5,19,19C36.1,29.4,27.6,37.9,17.2,37.9z
					 M17.2,2.7C8.2,2.7,0.9,10,0.9,19s7.3,16.2,16.2,16.2S33.4,27.9,33.4,19l0,0C33.4,10,26.1,2.7,17.2,2.7L17.2,2.7z"/>
			</g>
		</g>
	</g>
</g>
</svg>
