<svg xmlns="http://www.w3.org/2000/svg" width="19.927" height="19.927" viewBox="0 0 19.927 19.927">
  <g id="Group_10285" data-name="Group 10285" transform="translate(-541.5 -26.5)">
    <g id="Group_9950" data-name="Group 9950" transform="translate(541.5 26.5)">
      <circle id="Ellipse_294" data-name="Ellipse 294" cx="9.963" cy="9.963" r="9.963" fill="#f9f9f9"/>
      <g id="Group_9949" data-name="Group 9949" transform="translate(3.059 5.219)">
        <g id="Group_9946" data-name="Group 9946" transform="translate(1.102 6.684)">
          <path id="Path_3686" data-name="Path 3686" d="M119.872,231.7a.651.651,0,0,1-.337-.094c-3.924-2.36-8.575-1-8.621-.981a.654.654,0,0,1-.381-1.252,13,13,0,0,1,9.677,1.111.655.655,0,0,1-.338,1.215Z" transform="translate(-110.07 -228.901)" fill="#201c26"/>
        </g>
        <g id="Group_9947" data-name="Group 9947" transform="translate(0.679 3.478)">
          <path id="Path_3687" data-name="Path 3687" d="M117.865,205.28a.77.77,0,0,1-.385-.1,13.112,13.112,0,0,0-9.944-1.167.773.773,0,1,1-.5-1.463,14.525,14.525,0,0,1,11.217,1.29.774.774,0,0,1-.386,1.444Z" transform="translate(-106.512 -201.961)" fill="#201c26"/>
        </g>
        <g id="Group_9948" data-name="Group 9948" transform="translate(0 0)">
          <path id="Path_3688" data-name="Path 3688" d="M114.064,176.477a.948.948,0,0,1-.442-.109,16.571,16.571,0,0,0-11.576-1.179.952.952,0,1,1-.573-1.816,18.314,18.314,0,0,1,13.034,1.309.952.952,0,0,1-.443,1.795Z" transform="translate(-100.808 -172.729)" fill="#201c26"/>
        </g>
      </g>
    </g>
  </g>
</svg>
