<svg xmlns="http://www.w3.org/2000/svg" width="23.838" height="19.335" viewBox="0 0 23.838 19.335">
  <path id="Path_3731" data-name="Path 3731" d="M45.549,21.335A13.782,13.782,0,0,0,59.454,7.43V6.768a10.765,10.765,0,0,0,2.384-2.516,10.994,10.994,0,0,1-2.781.795A5.153,5.153,0,0,0,61.176,2.4,12.147,12.147,0,0,1,58.13,3.589,4.73,4.73,0,0,0,54.554,2a4.976,4.976,0,0,0-4.9,4.9,2.582,2.582,0,0,0,.132,1.059A13.692,13.692,0,0,1,39.722,2.795a5.072,5.072,0,0,0-.662,2.516,5.262,5.262,0,0,0,2.119,4.105,4.465,4.465,0,0,1-2.251-.662h0A4.84,4.84,0,0,0,42.9,13.522a4.083,4.083,0,0,1-1.324.132,2.254,2.254,0,0,1-.927-.132,5.017,5.017,0,0,0,4.635,3.443,10,10,0,0,1-6.092,2.119A3.666,3.666,0,0,1,38,18.952a12.5,12.5,0,0,0,7.549,2.384" transform="translate(-38 -2)" fill="#f9f9f9" fill-rule="evenodd"/>
</svg>
