<?xml version="1.0" encoding="utf-8"?>
<!-- Generator: Adobe Illustrator 24.3.0, SVG Export Plug-In . SVG Version: 6.00 Build 0)  -->
<svg version="1.1" id="Layer_1" xmlns="http://www.w3.org/2000/svg" xmlns:xlink="http://www.w3.org/1999/xlink" x="0px" y="0px"
	 viewBox="0 0 30 30" style="enable-background:new 0 0 30 30;" xml:space="preserve">
<style type="text/css">
	.st0{enable-background:new    ;}
	.st1{fill:#FF4383;}
</style>
<g class="st0">
	<path class="st1" d="M10.8,16.3C3.3,10.9,2.8,10.4,1,9C0.7,8.8,0.5,8.4,0.5,7.9v-1c0-1.5,1.2-2.7,2.7-2.7h23.6
		c1.5-0.1,2.7,1.2,2.7,2.7v1c0,0.4-0.2,0.8-0.5,1.1c-1.7,1.4-2.3,1.8-9.8,7.3c-1,0.7-2.8,2.4-4.2,2.3C13.7,18.7,11.8,17,10.8,16.3z
		 M29.5,11.6v11.6c0,1.5-1.2,2.7-2.7,2.7H3.2c-1.5,0-2.7-1.2-2.7-2.7V11.6c0-0.3,0.3-0.4,0.5-0.3c1.3,1,3,2.2,8.7,6.4
		c1.2,0.9,3.2,2.7,5.2,2.7s4.1-1.9,5.2-2.7c5.8-4.2,7.5-5.5,8.7-6.4C29.2,11.2,29.5,11.3,29.5,11.6z"/>
</g>
</svg>
