<svg xmlns="http://www.w3.org/2000/svg" width="19.621" height="19.854" viewBox="0 0 19.621 19.854">
  <path id="Path_3730" data-name="Path 3730" d="M1068.5,217h-15.666a1.981,1.981,0,0,0-1.978,1.986v15.883a1.98,1.98,0,0,0,1.978,1.985H1068.5a1.981,1.981,0,0,0,1.978-1.985V218.986A1.982,1.982,0,0,0,1068.5,217Zm-11.347,15.71h-2.641v-8.493h2.641Zm-1.338-9.535a1.323,1.323,0,1,1,1.424-1.32A1.317,1.317,0,0,1,1055.818,223.175Zm10.975,9.535h-2.64V228c0-1.093-.382-1.841-1.338-1.841a1.451,1.451,0,0,0-1.355.991,1.9,1.9,0,0,0-.087.66v4.9h-2.64v-5.784c0-1.059-.034-1.945-.07-2.709h2.292l.122,1.181h.051a3.05,3.05,0,0,1,2.623-1.373c1.737,0,3.039,1.164,3.039,3.664Z" transform="translate(-1050.86 -217)" fill="#f9f9f9"/>
</svg>
