<?xml version="1.0" encoding="UTF-8"?><svg id="Layer_2" xmlns="http://www.w3.org/2000/svg" viewBox="0 0 168.95 13.4"><defs><style>.cls-1{isolation:isolate;}.cls-2{fill:#ffda3b;}.cls-3{fill:#000e14;}</style></defs><g id="Component_5_1"><g id="Aptos_Kitties" class="cls-1"><g class="cls-1"><path class="cls-3" d="m3,13.4V5.08h4.03v8.32H3Zm2.03-8.32v-2.08h8v2.08H5.03Zm1.98,4.16v-2.08h4v2.08h-4Zm4,4.16V5.08h4v8.32h-4Z"/><path class="cls-3" d="m17,13.4V3h4v10.4h-4Zm4-8.32v-2.08h4v2.08h-4Zm0,6.24v-2.08h4v2.08h-4Zm2-2.08v-4.16h4v4.16h-4Z"/><path class="cls-3" d="m29,5.08v-2.08h12v2.08h-12Zm4,8.32V5.08h4v8.32h-4Z"/><path class="cls-3" d="m43,11.32v-6.24h4v6.24h-4Zm2.02-6.24v-2.08h8v2.08h-8Zm0,8.32v-2.08h8v2.08h-8Zm5.98-2.08v-6.24h4v6.24h-4Z"/><path class="cls-3" d="m56.98,5.08v-2.08h12v2.08h-12Zm0,2.08v-2.08h4v2.08h-4Zm0,2.08v-2.08h12v2.08h-12Zm0,4.16v-2.08h12v2.08h-12Zm8-2.08v-2.08h4v2.08h-4Z"/><path class="cls-3" d="m76.97,13.4V3h4v10.4h-4Zm4-4.16v-2.08h4v2.08h-4Zm2-2.08V3h4v4.16h-4Zm0,6.24v-4.16h4v4.16h-4Z"/><path class="cls-3" d="m88.95,5.08v-2.08h12v2.08h-12Zm0,8.32v-2.08h12v2.08h-12Zm4-2.08v-6.24h4v6.24h-4Z"/><path class="cls-3" d="m102.95,5.08v-2.08h12v2.08h-12Zm4,8.32V5.08h4v8.32h-4Z"/><path class="cls-3" d="m116.95,5.08v-2.08h12v2.08h-12Zm4,8.32V5.08h4v8.32h-4Z"/><path class="cls-3" d="m130.95,5.08v-2.08h12v2.08h-12Zm0,8.32v-2.08h12v2.08h-12Zm4-2.08v-6.24h4v6.24h-4Z"/><path class="cls-3" d="m144.95,13.4V3h4v10.4h-4Zm4-8.32v-2.08h6v2.08h-6Zm0,4.16v-2.08h4v2.08h-4Zm0,4.16v-2.08h6v2.08h-6Z"/><path class="cls-3" d="m156.95,5.08v-2.08h12v2.08h-12Zm0,2.08v-2.08h4v2.08h-4Zm0,2.08v-2.08h12v2.08h-12Zm0,4.16v-2.08h12v2.08h-12Zm8-2.08v-2.08h4v2.08h-4Z"/></g></g><g id="Aptos_Kitties-2" class="cls-1"><g class="cls-1"><path class="cls-2" d="m0,10.4V2.08h4.03v8.32H0ZM2.03,2.08V0h8v2.08H2.03Zm1.98,4.16v-2.08h4v2.08h-4Zm4,4.16V2.08h4v8.32h-4Z"/><path class="cls-2" d="m14,10.4V0h4v10.4h-4Zm4-8.32V0h4v2.08h-4Zm0,6.24v-2.08h4v2.08h-4Zm2-2.08V2.08h4v4.16h-4Z"/><path class="cls-2" d="m26,2.08V0h12v2.08h-12Zm4,8.32V2.08h4v8.32h-4Z"/><path class="cls-2" d="m40,8.32V2.08h4v6.24h-4Zm2.02-6.24V0h8v2.08h-8Zm0,8.32v-2.08h8v2.08h-8Zm5.98-2.08V2.08h4v6.24h-4Z"/><path class="cls-2" d="m53.98,2.08V0h12v2.08h-12Zm0,2.08v-2.08h4v2.08h-4Zm0,2.08v-2.08h12v2.08h-12Zm0,4.16v-2.08h12v2.08h-12Zm8-2.08v-2.08h4v2.08h-4Z"/><path class="cls-2" d="m73.97,10.4V0h4v10.4h-4Zm4-4.16v-2.08h4v2.08h-4Zm2-2.08V0h4v4.16h-4Zm0,6.24v-4.16h4v4.16h-4Z"/><path class="cls-2" d="m85.95,2.08V0h12v2.08h-12Zm0,8.32v-2.08h12v2.08h-12Zm4-2.08V2.08h4v6.24h-4Z"/><path class="cls-2" d="m99.95,2.08V0h12v2.08h-12Zm4,8.32V2.08h4v8.32h-4Z"/><path class="cls-2" d="m113.95,2.08V0h12v2.08h-12Zm4,8.32V2.08h4v8.32h-4Z"/><path class="cls-2" d="m127.95,2.08V0h12v2.08h-12Zm0,8.32v-2.08h12v2.08h-12Zm4-2.08V2.08h4v6.24h-4Z"/><path class="cls-2" d="m141.95,10.4V0h4v10.4h-4Zm4-8.32V0h6v2.08h-6Zm0,4.16v-2.08h4v2.08h-4Zm0,4.16v-2.08h6v2.08h-6Z"/><path class="cls-2" d="m153.95,2.08V0h12v2.08h-12Zm0,2.08v-2.08h4v2.08h-4Zm0,2.08v-2.08h12v2.08h-12Zm0,4.16v-2.08h12v2.08h-12Zm8-2.08v-2.08h4v2.08h-4Z"/></g></g></g></svg>