<?xml version="1.0" encoding="utf-8"?>
<!-- Generator: Adobe Illustrator 26.5.0, SVG Export Plug-In . SVG Version: 6.00 Build 0)  -->
<svg version="1.1" id="Layer_1" xmlns="http://www.w3.org/2000/svg" xmlns:xlink="http://www.w3.org/1999/xlink" x="0px" y="0px"
	 viewBox="0 0 30 30" style="enable-background:new 0 0 30 30;" xml:space="preserve">
<style type="text/css">
	.st0{enable-background:new    ;}
	.st1{fill:#FF4383;}
</style>
<g class="st0">
	<path class="st1" d="M30,3.3c0,14.5-11.8,26.3-26.3,26.3c-0.6,0-1.2-0.4-1.3-1.1L1,22.7c-0.1-0.6,0.2-1.3,0.8-1.6l6.3-2.7
		c0.6-0.2,1.2-0.1,1.6,0.4l2.8,3.4c4.4-2.1,8-5.7,10-10l-3.4-2.8c-0.5-0.4-0.6-1-0.4-1.6l2.7-6.3c0.3-0.6,0.9-0.9,1.6-0.8L28.9,2
		C29.6,2.2,30,2.7,30,3.3z"/>
</g>
</svg>
